<mxfile host="app.diagrams.net" agent="Mozilla/5.0 (Windows NT 10.0; Win64; x64) AppleWebKit/537.36 (KHTML, like Gecko) Chrome/130.0.0.0 Safari/537.36 QuarkPC/2.5.0.298" version="27.1.6">
  <diagram name="第 1 页" id="oD91nakDeZvcZ9QeIzpE">
    <mxGraphModel dx="2066" dy="2245" grid="1" gridSize="10" guides="1" tooltips="1" connect="1" arrows="1" fold="1" page="1" pageScale="1" pageWidth="827" pageHeight="1169" math="0" shadow="0">
      <root>
        <mxCell id="0" />
        <mxCell id="1" parent="0" />
        <mxCell id="rZmk0yolcsBjZfp75unx-3" value="" style="edgeStyle=orthogonalEdgeStyle;rounded=0;orthogonalLoop=1;jettySize=auto;html=1;" edge="1" parent="1" source="rZmk0yolcsBjZfp75unx-1" target="rZmk0yolcsBjZfp75unx-2">
          <mxGeometry relative="1" as="geometry" />
        </mxCell>
        <mxCell id="rZmk0yolcsBjZfp75unx-1" value="用户查询请求" style="rounded=1;whiteSpace=wrap;html=1;" vertex="1" parent="1">
          <mxGeometry x="335" y="-500" width="120" height="60" as="geometry" />
        </mxCell>
        <mxCell id="rZmk0yolcsBjZfp75unx-6" value="" style="edgeStyle=orthogonalEdgeStyle;rounded=0;orthogonalLoop=1;jettySize=auto;html=1;" edge="1" parent="1" source="rZmk0yolcsBjZfp75unx-2" target="rZmk0yolcsBjZfp75unx-5">
          <mxGeometry relative="1" as="geometry" />
        </mxCell>
        <mxCell id="rZmk0yolcsBjZfp75unx-2" value="planner 智能体" style="ellipse;whiteSpace=wrap;html=1;" vertex="1" parent="1">
          <mxGeometry x="335" y="-400" width="120" height="80" as="geometry" />
        </mxCell>
        <mxCell id="rZmk0yolcsBjZfp75unx-8" value="" style="edgeStyle=orthogonalEdgeStyle;rounded=0;orthogonalLoop=1;jettySize=auto;html=1;" edge="1" parent="1" source="rZmk0yolcsBjZfp75unx-5" target="rZmk0yolcsBjZfp75unx-7">
          <mxGeometry relative="1" as="geometry" />
        </mxCell>
        <mxCell id="rZmk0yolcsBjZfp75unx-5" value="任务链分解" style="rounded=0;whiteSpace=wrap;html=1;" vertex="1" parent="1">
          <mxGeometry x="335" y="-280" width="120" height="60" as="geometry" />
        </mxCell>
        <mxCell id="rZmk0yolcsBjZfp75unx-15" style="edgeStyle=orthogonalEdgeStyle;rounded=0;orthogonalLoop=1;jettySize=auto;html=1;entryX=0.5;entryY=0;entryDx=0;entryDy=0;" edge="1" parent="1" source="rZmk0yolcsBjZfp75unx-7" target="rZmk0yolcsBjZfp75unx-9">
          <mxGeometry relative="1" as="geometry" />
        </mxCell>
        <mxCell id="rZmk0yolcsBjZfp75unx-17" style="edgeStyle=orthogonalEdgeStyle;rounded=0;orthogonalLoop=1;jettySize=auto;html=1;" edge="1" parent="1" source="rZmk0yolcsBjZfp75unx-7" target="rZmk0yolcsBjZfp75unx-10">
          <mxGeometry relative="1" as="geometry" />
        </mxCell>
        <mxCell id="rZmk0yolcsBjZfp75unx-7" value="worker智能体群" style="rhombus;whiteSpace=wrap;html=1;" vertex="1" parent="1">
          <mxGeometry x="330" y="-190" width="130" height="130" as="geometry" />
        </mxCell>
        <mxCell id="rZmk0yolcsBjZfp75unx-16" style="edgeStyle=orthogonalEdgeStyle;rounded=0;orthogonalLoop=1;jettySize=auto;html=1;entryX=0;entryY=0.5;entryDx=0;entryDy=0;" edge="1" parent="1" source="rZmk0yolcsBjZfp75unx-9" target="rZmk0yolcsBjZfp75unx-10">
          <mxGeometry relative="1" as="geometry" />
        </mxCell>
        <mxCell id="rZmk0yolcsBjZfp75unx-9" value="planner 智能体" style="ellipse;whiteSpace=wrap;html=1;" vertex="1" parent="1">
          <mxGeometry x="70" y="60" width="120" height="80" as="geometry" />
        </mxCell>
        <mxCell id="rZmk0yolcsBjZfp75unx-10" value="planner 智能体" style="ellipse;whiteSpace=wrap;html=1;" vertex="1" parent="1">
          <mxGeometry x="270" y="60" width="120" height="80" as="geometry" />
        </mxCell>
        <mxCell id="rZmk0yolcsBjZfp75unx-19" style="edgeStyle=orthogonalEdgeStyle;rounded=0;orthogonalLoop=1;jettySize=auto;html=1;entryX=0.5;entryY=1;entryDx=0;entryDy=0;" edge="1" parent="1" source="rZmk0yolcsBjZfp75unx-11" target="rZmk0yolcsBjZfp75unx-7">
          <mxGeometry relative="1" as="geometry" />
        </mxCell>
        <mxCell id="rZmk0yolcsBjZfp75unx-11" value="planner 智能体" style="ellipse;whiteSpace=wrap;html=1;" vertex="1" parent="1">
          <mxGeometry x="470" y="60" width="120" height="80" as="geometry" />
        </mxCell>
        <mxCell id="rZmk0yolcsBjZfp75unx-12" value="planner 智能体" style="ellipse;whiteSpace=wrap;html=1;" vertex="1" parent="1">
          <mxGeometry x="680" y="60" width="120" height="80" as="geometry" />
        </mxCell>
      </root>
    </mxGraphModel>
  </diagram>
</mxfile>
